<?xml version="1.0" standalone="no"?>
<!DOCTYPE svg PUBLIC "-//W3C//DTD SVG 20010904//EN"
 "http://www.w3.org/TR/2001/REC-SVG-20010904/DTD/svg10.dtd">
<svg version="1.0" xmlns="http://www.w3.org/2000/svg"
 width="500.000000pt" height="500.000000pt" viewBox="0 0 500.000000 500.000000"
 preserveAspectRatio="xMidYMid meet">

<g transform="translate(0.000000,500.000000) scale(0.100000,-0.100000)"
fill="#000000" stroke="none">
<path d="M2390 3481 c-164 -53 -273 -165 -315 -326 -52 -202 50 -417 243 -512
69 -35 83 -38 176 -41 83 -3 112 0 164 17 126 43 214 121 271 240 30 64 36 88
39 161 9 181 -73 332 -228 423 -96 56 -244 72 -350 38z m273 -71 c129 -48 232
-187 244 -328 20 -242 -171 -434 -418 -420 -181 11 -325 142 -359 326 -35 194
106 400 302 442 63 13 165 5 231 -20z"/>
<path d="M2139 2585 c-323 -139 -533 -436 -571 -806 -6 -60 -8 -143 -3 -192
l7 -87 928 0 928 0 6 23 c3 12 6 75 6 140 0 291 -99 538 -295 732 -93 93 -192
158 -299 197 -53 20 -53 20 -92 0 -40 -21 -40 -20 12 -37 15 -5 16 -16 10 -85
-8 -99 -36 -192 -76 -252 -49 -74 -67 -81 -200 -83 l-115 -1 -42 39 c-67 62
-106 161 -119 304 l-7 72 33 8 c42 11 48 26 15 41 -37 17 -63 14 -126 -13z
m806 -109 c191 -109 338 -312 401 -552 21 -80 27 -124 28 -229 l1 -130 -875 0
-875 0 -3 76 c-7 174 53 399 144 547 67 109 197 235 304 294 47 27 92 48 100
48 12 0 18 -21 28 -90 21 -155 75 -266 155 -318 23 -14 52 -37 64 -49 12 -13
33 -23 47 -23 16 0 27 -7 31 -21 10 -30 64 -49 143 -49 38 0 83 -5 100 -11 56
-19 77 -80 48 -138 -24 -46 -41 -55 -68 -37 -28 20 -87 21 -115 1 -12 -8 -27
-31 -33 -49 -26 -79 58 -144 133 -104 32 17 46 39 47 74 0 20 9 39 26 55 56
52 69 119 34 176 -28 46 -63 60 -168 65 -69 3 -97 8 -109 21 -16 16 -16 17 5
17 12 0 34 11 49 25 16 14 47 39 71 55 79 56 135 177 148 318 8 96 7 95 51 75
21 -10 61 -31 88 -47z m-390 -381 c0 -11 -79 -19 -102 -11 -8 3 -11 11 -8 16
8 14 110 9 110 -5z m147 -332 c38 -34 11 -103 -40 -103 -53 0 -83 68 -46 104
20 21 63 20 86 -1z"/>
<path d="M2000 2220 c-11 -11 -20 -33 -20 -50 0 -27 -3 -30 -33 -30 -42 0 -57
-15 -57 -57 0 -36 21 -53 64 -53 14 0 27 -6 27 -12 1 -7 3 -23 4 -36 3 -34 18
-44 61 -40 38 3 39 4 42 46 3 39 5 42 33 42 48 0 69 16 69 53 0 43 -15 57 -62
57 -38 0 -38 0 -38 40 0 58 -50 80 -90 40z m60 -64 l0 -45 48 -3 c39 -3 47 -6
47 -23 0 -17 -8 -20 -47 -23 l-48 -3 0 -45 c0 -37 -3 -44 -20 -44 -21 0 -25
13 -21 62 2 25 -1 27 -46 30 -41 3 -48 6 -51 26 -3 20 0 22 49 22 l52 0 -5 45
c-5 42 -4 45 18 45 22 0 24 -4 24 -44z"/>
<path d="M2634 1736 c-10 -26 4 -48 28 -44 17 2 23 10 23 28 0 18 -6 26 -23
28 -13 2 -25 -3 -28 -12z"/>
</g>
</svg>
