<?xml version="1.0" standalone="no"?>
<!DOCTYPE svg PUBLIC "-//W3C//DTD SVG 20010904//EN"
 "http://www.w3.org/TR/2001/REC-SVG-20010904/DTD/svg10.dtd">
<svg version="1.0" xmlns="http://www.w3.org/2000/svg"
 width="533.000000pt" height="1024.000000pt" viewBox="0 0 533.000000 1024.000000"
 preserveAspectRatio="xMidYMid meet">

<g transform="translate(0.000000,1024.000000) scale(0.100000,-0.100000)"
fill="#000000" stroke="none">
<path d="M2775 9696 c15 -22 12 -56 -5 -56 -4 0 -25 7 -46 16 -46 19 -99 13
-172 -21 -28 -13 -52 -26 -52 -28 0 -3 34 6 75 19 84 27 123 31 91 11 -75 -48
-137 -86 -171 -106 l-40 -23 30 27 30 27 -35 -7 c-19 -4 -52 -16 -72 -26 -42
-22 -83 -26 -72 -7 5 8 2 9 -10 5 -35 -14 -34 4 2 39 l37 36 -45 -33 c-72 -54
-181 -169 -235 -248 -55 -81 -50 -82 -70 11 -8 40 -48 48 -82 17 -32 -30 -62
-95 -63 -134 0 -33 16 -62 63 -112 l30 -32 51 29 c112 63 283 86 432 59 52
-10 317 -108 509 -189 147 -62 226 -61 291 4 43 43 51 76 27 122 -23 48 -57
72 -111 80 -38 6 -42 5 -35 -11 5 -14 3 -17 -10 -12 -8 3 -32 9 -52 13 -20 3
-33 9 -30 13 4 3 -14 11 -40 16 -25 6 -46 15 -47 20 -3 24 63 46 160 54 110
10 158 29 173 68 13 36 -5 87 -37 102 l-26 11 21 -26 c31 -40 17 -45 -45 -17
-41 19 -76 26 -137 28 l-82 4 75 -9 c91 -11 136 -23 133 -36 -1 -5 -44 -15
-95 -23 -75 -12 -87 -16 -63 -22 21 -4 5 -7 -47 -8 -43 0 -78 3 -78 7 0 5 18
15 40 22 22 7 40 17 40 22 0 4 -35 8 -78 8 -82 0 -99 5 -82 26 8 9 6 12 -6 10
-9 0 -19 4 -21 10 -4 11 83 43 121 45 11 0 15 3 8 6 -30 12 -187 -35 -284 -85
-5 -2 -8 1 -8 6 0 19 85 104 139 140 49 33 56 42 59 75 3 28 -2 42 -22 62 -32
32 -52 33 -31 1z m-843 -438 c-15 -15 -26 -4 -18 18 5 13 9 15 18 6 9 -9 9
-15 0 -24z m1170 -118 c44 -13 48 -18 37 -48 l-9 -22 -57 31 c-32 18 -62 36
-67 41 -14 11 51 10 96 -2z m6 -87 c-10 -2 -28 -2 -40 0 -13 2 -5 4 17 4 22 1
32 -1 23 -4z"/>
<path d="M2379 9613 c-13 -16 -12 -17 4 -4 16 13 21 21 13 21 -2 0 -10 -8 -17
-17z"/>
<path d="M3027 9520 c6 -24 19 -26 27 -4 9 23 8 24 -13 24 -14 0 -18 -5 -14
-20z"/>
<path d="M3528 9274 c-28 -9 -54 -24 -64 -39 -15 -22 -14 -27 11 -69 15 -25
29 -46 31 -46 2 0 27 10 56 22 38 15 74 21 128 21 70 1 79 -2 130 -36 50 -34
80 -46 80 -32 0 4 -8 20 -17 38 -10 18 -20 58 -23 90 l-5 59 -28 -22 c-26 -21
-29 -21 -62 -6 -37 18 -123 36 -164 35 -14 0 -47 -7 -73 -15z m190 -15 c17 -6
32 -17 32 -24 0 -11 -9 -10 -47 2 -31 9 -72 13 -115 10 -72 -5 -89 6 -35 22
35 11 114 6 165 -10z"/>
<path d="M3073 9183 c9 -2 23 -2 30 0 6 3 -1 5 -18 5 -16 0 -22 -2 -12 -5z"/>
<path d="M2290 9080 l55 -6 -40 -8 c-99 -19 -164 -49 -220 -97 -20 -18 -38
-29 -42 -25 -15 15 80 90 152 119 22 9 33 16 25 16 -29 1 -119 -48 -163 -88
-55 -51 -86 -106 -70 -122 9 -9 26 -5 70 19 118 62 265 83 381 52 89 -23 119
18 62 84 -39 44 -108 67 -199 64 l-66 -1 55 -7z"/>
<path d="M4034 9014 c3 -18 0 -39 -7 -48 -11 -15 -19 -15 -63 -5 -109 25 -226
-43 -258 -150 -40 -136 -3 -279 119 -461 78 -116 133 -182 75 -91 -22 35 -38
66 -36 68 11 11 65 -29 68 -49 2 -19 10 -24 45 -26 74 -5 150 48 167 118 3 14
3 19 0 13 -3 -7 -10 -13 -15 -13 -6 0 -7 5 -4 10 3 6 -1 10 -10 10 -26 0 -15
44 13 48 30 5 29 45 -2 103 -25 49 -20 64 25 71 23 4 23 5 -18 45 -92 90 -232
98 -332 18 -27 -21 -48 -32 -54 -26 -14 14 3 114 27 157 65 119 250 108 396
-23 57 -51 89 -102 132 -206 l29 -72 -6 50 c-8 66 -46 173 -81 232 -18 31 -29
64 -30 93 -2 25 -7 56 -13 70 -9 24 -10 23 -10 -11 -1 -19 -8 -44 -16 -55 -14
-18 -14 -17 -15 16 0 38 -31 113 -50 125 -9 6 -9 3 -1 -13 16 -31 13 -67 -8
-86 -18 -16 -19 -15 -25 21 -3 21 -15 52 -27 68 l-21 30 6 -31z m24 -370 c2
-24 -2 -33 -23 -42 -37 -17 -63 -15 -73 6 -12 23 -4 42 18 42 10 0 21 7 24 16
3 9 15 14 28 12 17 -2 24 -11 26 -34z m-115 -278 c-3 -39 -18 -53 -38 -36 -15
13 -20 51 -8 64 4 4 16 6 28 4 15 -2 20 -10 18 -32z"/>
<path d="M2132 8590 c-103 -27 -182 -73 -246 -141 -68 -74 -98 -76 -168 -11
-18 16 -28 21 -28 12 0 -28 42 -100 76 -130 l35 -30 -46 0 c-57 0 -100 21
-125 63 -25 40 -27 14 -5 -41 19 -43 48 -77 89 -103 26 -16 27 -19 12 -25 -25
-10 -90 12 -127 43 l-32 27 16 -31 c19 -35 67 -79 113 -101 26 -12 36 -26 52
-76 38 -115 137 -265 215 -326 l28 -23 -30 50 c-74 120 -111 230 -111 334 0
171 99 328 256 401 85 40 209 50 300 23 217 -62 395 -261 485 -542 12 -40 25
-71 27 -69 6 7 -46 209 -73 281 -66 175 -184 303 -350 380 -126 59 -233 69
-363 35z"/>
<path d="M1502 8473 c-23 -32 -42 -66 -42 -77 0 -12 3 -16 9 -10 12 12 84 144
79 144 -2 0 -23 -26 -46 -57z"/>
<path d="M2258 8357 c-134 -51 -224 -157 -243 -289 l-7 -48 33 6 c19 3 42 7
52 9 13 2 17 -4 17 -32 0 -19 5 -54 11 -79 9 -33 16 -44 31 -44 28 0 76 -27
88 -50 8 -14 8 -26 0 -40 -9 -16 -6 -22 15 -36 59 -39 163 -35 232 7 37 23 89
86 80 96 -4 3 -9 -2 -13 -11 -3 -9 -11 -16 -16 -16 -6 0 -8 6 -5 14 3 8 -1 17
-9 20 -16 6 -18 24 -4 46 5 9 22 13 45 12 l37 -3 -5 78 c-3 43 -7 86 -9 96 -4
22 52 60 59 40 7 -20 33 -15 33 5 0 52 -107 168 -188 204 -60 26 -182 34 -234
15z m286 -103 c17 -17 19 -27 10 -59 -4 -15 -19 -24 -50 -31 -40 -9 -49 -8
-70 9 -35 27 -29 62 11 62 17 0 38 8 48 18 21 21 31 21 51 1z m-374 -284 c0
-5 -4 -10 -9 -10 -6 0 -13 5 -16 10 -3 6 1 10 9 10 9 0 16 -4 16 -10z m130
-35 c10 -12 8 -21 -10 -50 -24 -39 -44 -45 -60 -16 -14 27 -13 47 6 65 19 20
48 20 64 1z"/>
<path d="M4412 7394 c-26 -18 -29 -56 -5 -75 15 -12 16 -12 11 7 -9 34 10 56
45 54 47 -3 51 -1 37 15 -16 19 -60 19 -88 -1z"/>
<path d="M3804 7279 c-19 -22 -19 -22 3 -10 51 26 103 -4 103 -60 0 -17 4 -28
10 -24 6 3 10 21 10 39 0 65 -84 102 -126 55z"/>
<path d="M3099 6847 c-18 -12 -44 -38 -56 -56 -30 -44 -31 -74 -2 -37 12 15
23 25 25 23 2 -2 15 -46 28 -98 65 -256 218 -485 370 -555 115 -53 239 -65
392 -39 184 31 319 131 420 310 66 115 122 201 174 265 66 81 86 119 31 58
-146 -161 -327 -258 -538 -288 -109 -16 -359 -8 -438 14 -158 43 -319 157
-365 257 -26 57 -25 79 4 122 36 52 14 64 -45 24z m177 -343 c210 -131 530
-162 799 -77 85 27 196 78 247 115 31 22 31 21 -9 -33 -22 -29 -55 -77 -72
-105 -26 -42 -41 -56 -90 -78 -177 -79 -446 -105 -651 -61 -176 37 -246 89
-317 235 -60 124 -63 141 -18 91 21 -23 71 -62 111 -87z"/>
<path d="M2310 6277 c0 -20 9 -45 21 -61 l20 -26 -24 -9 c-37 -14 -67 -59 -67
-98 0 -52 34 -103 101 -152 51 -38 58 -46 47 -60 -7 -9 -19 -20 -25 -24 -18
-11 -16 -37 2 -37 25 0 17 -24 -21 -61 -32 -29 -36 -31 -32 -12 5 20 4 21 -18
11 -13 -6 -24 -17 -24 -24 0 -13 71 -107 89 -118 19 -12 71 -97 71 -116 0 -11
-14 -36 -32 -55 -24 -29 -29 -39 -18 -45 11 -7 10 -13 -4 -34 -9 -15 -21 -24
-26 -21 -6 4 -10 -1 -10 -9 0 -35 21 -63 67 -85 59 -30 83 -50 83 -68 0 -7
-10 -13 -23 -13 -13 0 -33 -10 -44 -22 -33 -38 -35 -46 -8 -40 25 4 55 -12 55
-29 0 -5 -11 -7 -25 -3 -40 10 -54 -9 -44 -57 5 -22 7 -44 4 -49 -6 -10 56
-71 68 -67 12 3 36 -44 37 -70 0 -17 -7 -24 -27 -29 -56 -12 -57 -13 -27 -40
16 -15 24 -28 18 -30 -24 -10 -6 -73 30 -108 41 -38 48 -76 15 -76 -18 0 -20
-2 -8 -16 8 -9 9 -18 3 -22 -11 -8 -11 -18 0 -90 6 -38 4 -57 -5 -68 -10 -12
-9 -17 8 -29 31 -22 48 -138 33 -221 -7 -35 -10 -78 -6 -95 3 -17 0 -45 -9
-65 -27 -64 -4 -34 31 40 82 178 109 438 84 806 -25 378 -67 794 -109 1093
l-17 127 121 -125 c111 -114 249 -235 268 -235 10 0 9 48 -3 70 -7 13 -6 21 5
30 8 7 15 21 15 32 0 10 7 21 15 24 8 4 15 11 15 18 1 6 9 29 20 51 22 45 25
106 9 169 l-11 43 -101 23 c-161 35 -309 89 -574 207 -9 3 -13 -6 -13 -30z
m65 -147 c3 -6 -1 -7 -9 -4 -18 7 -21 14 -7 14 6 0 13 -4 16 -10z m5 -34 c0
-17 -49 -31 -63 -17 -15 15 2 31 34 31 18 0 29 -5 29 -14z m30 -452 c22 -9 40
-22 40 -29 0 -10 -10 -8 -40 6 -21 10 -44 19 -50 19 -5 0 -10 5 -10 10 0 14
13 13 60 -6z"/>
<path d="M292 5238 c-8 -8 -12 -58 -12 -161 0 -138 -1 -149 -17 -142 -10 4
-61 18 -113 31 -135 35 -146 28 -141 -86 5 -106 98 -382 169 -499 146 -242
400 -361 621 -292 115 36 192 100 237 196 20 42 24 66 24 153 0 127 -35 446
-54 488 -17 38 -63 59 -110 50 -19 -4 -62 -25 -95 -47 l-60 -40 -82 88 c-218
231 -269 273 -332 273 -13 0 -28 -5 -35 -12z"/>
<path d="M1010 2187 c0 -39 -16 -62 -47 -72 -17 -5 -23 -2 -23 9 0 19 -16 21
-23 4 -2 -7 -14 4 -27 25 -28 47 -37 42 -16 -8 21 -50 20 -52 -11 -24 -32 27
-24 16 51 -73 26 -32 53 -58 60 -58 13 0 66 77 66 97 0 7 -6 13 -14 13 -11 0
-13 13 -9 60 3 33 3 60 -1 60 -3 0 -6 -15 -6 -33z"/>
<path d="M1050 2204 c0 -8 5 -12 10 -9 6 3 10 10 10 16 0 5 -4 9 -10 9 -5 0
-10 -7 -10 -16z"/>
<path d="M911 2180 c14 -31 19 -36 19 -24 0 6 -7 19 -16 30 -14 18 -14 18 -3
-6z"/>
<path d="M5200 1485 c0 -19 -7 -26 -27 -31 -16 -4 -35 -14 -43 -24 -8 -10 -48
-25 -90 -34 -41 -10 -88 -23 -105 -31 -29 -13 -29 -13 35 -16 36 -2 92 -2 124
-1 53 3 58 1 46 -12 -10 -14 -10 -16 5 -16 14 0 15 -3 5 -15 -13 -16 -48 -19
-100 -9 -25 6 -31 11 -26 27 4 15 -4 12 -32 -15 -20 -20 -56 -45 -79 -57 -51
-26 -65 -49 -66 -113 0 -26 -2 -48 -4 -48 -1 0 -9 21 -17 48 -8 26 -15 38 -15
26 -3 -69 78 -243 147 -316 85 -91 164 -112 224 -59 46 40 115 180 134 271 21
101 15 255 -14 329 -20 50 -75 121 -94 121 -4 0 -8 -11 -8 -25z"/>
<path d="M4802 1335 c0 -16 2 -22 5 -12 2 9 2 23 0 30 -3 6 -5 -1 -5 -18z"/>
<path d="M3458 1283 c-7 -16 -12 -82 -12 -153 0 -188 25 -243 131 -293 63 -29
67 -30 193 -25 122 4 131 6 166 33 21 16 46 49 59 79 24 54 42 121 27 97 -8
-11 -10 -11 -14 0 -4 11 -9 12 -27 2 -30 -18 -31 -17 -31 30 -1 41 -1 42 -15
17 -18 -32 -19 -11 -4 61 9 40 8 57 -2 75 -7 13 -10 26 -8 28 2 2 34 7 71 10
64 7 67 7 71 -16 4 -22 4 -21 6 3 l1 26 -182 6 c-128 4 -212 12 -278 26 -126
28 -138 27 -152 -6z m392 -84 c0 -10 5 -19 10 -19 6 0 10 -7 10 -15 0 -18 -17
-20 -23 -2 -2 6 -8 0 -12 -15 -11 -41 -35 -36 -35 6 0 47 7 62 30 63 14 1 20
-4 20 -18z"/>
<path d="M4803 1225 c0 -22 2 -30 4 -17 2 12 2 30 0 40 -3 9 -5 -1 -4 -23z"/>
<path d="M1975 951 c-27 -10 -72 -28 -99 -40 -27 -12 -52 -18 -55 -14 -15 20
-40 9 -47 -21 -4 -17 -17 -44 -29 -61 -33 -44 -57 -95 -51 -110 2 -7 -9 -59
-26 -116 -25 -86 -29 -115 -24 -164 14 -136 85 -273 177 -341 72 -52 140 -75
245 -81 252 -15 424 82 490 279 34 99 41 214 20 298 -17 64 -60 170 -70 170
-3 0 6 -24 19 -52 25 -54 45 -150 29 -135 -5 5 -17 27 -27 50 -16 39 -17 40
-13 10 8 -49 -33 -79 -73 -54 -10 6 -12 19 -7 42 6 31 5 31 -12 16 -23 -21
-28 -21 -50 1 -44 44 -50 60 -39 112 10 54 5 80 -16 80 -9 0 -17 -15 -21 -40
-4 -26 -11 -40 -21 -40 -8 0 -15 5 -15 11 0 5 -4 7 -10 4 -6 -4 -10 15 -10 50
0 45 -5 63 -25 90 -14 18 -37 36 -50 39 -45 11 -28 28 23 22 36 -4 40 -3 17 3
-55 16 -177 11 -230 -8z m236 -154 c-13 -13 -26 -3 -16 12 3 6 11 8 17 5 6 -4
6 -10 -1 -17z m311 -339 c-15 -15 -26 -4 -18 18 5 13 9 15 18 6 9 -9 9 -15 0
-24z"/>
<path d="M2370 886 c0 -2 8 -10 18 -17 15 -13 16 -12 3 4 -13 16 -21 21 -21
13z"/>
<path d="M2410 857 c0 -2 15 -16 33 -33 l32 -29 -29 33 c-28 30 -36 37 -36 29z"/>
<path d="M2470 786 c0 -2 8 -10 18 -17 15 -13 16 -12 3 4 -13 16 -21 21 -21
13z"/>
<path d="M2485 670 c-3 -5 1 -10 10 -10 9 0 13 5 10 10 -3 6 -8 10 -10 10 -2
0 -7 -4 -10 -10z"/>
</g>
</svg>
